<svg width="23" height="23" viewBox="0 0 23 23" fill="none" xmlns="http://www.w3.org/2000/svg">
<circle cx="11.5" cy="11.5" r="11.5" fill="#0FB5E9"/>
<path d="M18 8.98851V14.3125C18 14.7429 17.8246 15.1571 17.5096 15.4703C17.1947 15.7834 16.7639 15.9719 16.3056 15.9972L16.2 16H7.8C7.34087 16 6.89909 15.8356 6.56504 15.5403C6.231 15.245 6.02994 14.8412 6.003 14.4115L6 14.3125V8.98851L11.667 12.5305L11.7366 12.5677C11.8186 12.6052 11.9087 12.6248 12 12.6248C12.0913 12.6248 12.1814 12.6052 12.2634 12.5677L12.333 12.5305L18 8.98851Z" fill="#F2F2F2"/>
<path d="M16.2002 7C16.8482 7 17.4164 7.32062 17.7332 7.80268L12.0002 11.3858L6.26719 7.80268C6.41763 7.57361 6.62432 7.3816 6.87001 7.24265C7.11571 7.1037 7.39329 7.02186 7.67959 7.00394L7.80019 7H16.2002Z" fill="#F2F2F2"/>
</svg>
