<svg width="17" height="18" viewBox="0 0 17 18" fill="none" xmlns="http://www.w3.org/2000/svg">
<g id="mail">
<circle id="Ellipse 1" cx="8.5" cy="9" r="8.5" fill="#0FB5E9"/>
<g id="Vector">
<path d="M12.75 7.57503V11.3462C12.75 11.6511 12.6258 11.9445 12.4027 12.1663C12.1795 12.3881 11.8745 12.5216 11.5498 12.5395L11.475 12.5415H5.525C5.19979 12.5415 4.88686 12.425 4.65024 12.2159C4.41362 12.0067 4.2712 11.7207 4.25213 11.4163L4.25 11.3462V7.57503L8.26412 10.084L8.31343 10.1103C8.37152 10.1369 8.43534 10.1507 8.5 10.1507C8.56466 10.1507 8.62848 10.1369 8.68657 10.1103L8.73588 10.084L12.75 7.57503Z" fill="#1538B6"/>
<path d="M11.4751 6.1665C11.9341 6.1665 12.3366 6.39361 12.561 6.73507L8.50013 9.27309L4.43926 6.73507C4.54582 6.57281 4.69222 6.4368 4.86626 6.33838C5.04029 6.23996 5.23691 6.18199 5.43971 6.16929L5.52513 6.1665H11.4751Z" fill="#1538B6"/>
</g>
</g>
</svg>
