<svg width="13" height="16" viewBox="0 0 13 16" fill="none" xmlns="http://www.w3.org/2000/svg">
<path fill-rule="evenodd" clip-rule="evenodd" d="M0.589011 1.60768C0.703451 1.08974 1.01896 0.638476 1.46612 0.353158C1.91328 0.0678404 2.45547 -0.0281579 2.97341 0.0862822L3.86653 0.28362C4.42636 0.407316 4.8303 0.896656 4.8464 1.46962L4.92954 4.50778C4.93634 4.7537 4.87042 4.99617 4.74004 5.20479C4.60966 5.41342 4.42061 5.57893 4.19658 5.6806L3.21536 6.12606C3.11296 6.17239 3.07279 6.26456 3.08271 6.33708C3.22934 7.41739 3.60901 8.45293 4.19544 9.37199C4.78186 10.2911 5.56103 11.0717 6.47899 11.6598C6.54057 11.6994 6.64043 11.7017 6.72625 11.6284L7.54366 10.9263C7.73026 10.7659 7.96001 10.6642 8.20415 10.6339C8.44829 10.6035 8.69596 10.6459 8.91612 10.7557L11.6364 12.1112C12.1493 12.3672 12.4228 12.9397 12.299 13.5002L12.1018 14.3927C11.9874 14.9106 11.6719 15.3619 11.2247 15.6472C10.7775 15.9325 10.2354 16.0285 9.71742 15.9141L8.25274 15.5904C2.59064 14.3394 -0.985666 8.73446 0.265388 3.07236L0.589011 1.60768Z" fill="#0FB5E9"/>
</svg>
