<svg width="65pt" height="26pt" viewBox="0 0 65 26" xmlns="http://www.w3.org/2000/svg"><g id="fontsvg1697262567343" stroke-linecap="round" fill-rule="evenodd" fill="#000000"><path d="M 14.063 19.688 L 2.813 19.688 L 2.813 16.875 L 0 16.875 L 0 14.063 L 5.625 14.063 L 5.625 16.875 L 11.25 16.875 L 11.25 11.25 L 2.813 11.25 L 2.813 8.438 L 0 8.438 L 0 2.813 L 2.813 2.813 L 2.813 0 L 14.063 0 L 14.063 2.813 L 16.875 2.813 L 16.875 5.625 L 11.25 5.625 L 11.25 2.813 L 5.625 2.813 L 5.625 8.438 L 14.063 8.438 L 14.063 11.25 L 16.875 11.25 L 16.875 16.875 L 14.063 16.875 L 14.063 19.688 Z M 59.063 25.313 L 47.813 25.313 L 47.813 22.5 L 45 22.5 L 45 16.875 L 47.813 16.875 L 47.813 14.063 L 45 14.063 L 45 11.25 L 47.813 11.25 L 47.813 8.438 L 45 8.438 L 45 2.813 L 47.813 2.813 L 47.813 0 L 64.688 0 L 64.688 2.813 L 61.875 2.813 L 61.875 8.438 L 59.063 8.438 L 59.063 11.25 L 50.625 11.25 L 50.625 14.063 L 59.063 14.063 L 59.063 16.875 L 61.875 16.875 L 61.875 22.5 L 59.063 22.5 L 59.063 25.313 Z M 33.75 19.688 L 28.125 19.688 L 28.125 16.875 L 25.313 16.875 L 25.313 14.063 L 22.5 14.063 L 22.5 0 L 28.125 0 L 28.125 14.063 L 33.75 14.063 L 33.75 0 L 39.375 0 L 39.375 14.063 L 36.563 14.063 L 36.563 16.875 L 33.75 16.875 L 33.75 19.688 Z M 50.625 22.5 L 56.25 22.5 L 56.25 16.875 L 50.625 16.875 L 50.625 22.5 Z M 50.625 8.438 L 56.25 8.438 L 56.25 2.813 L 50.625 2.813 L 50.625 8.438 Z" vector-effect="non-scaling-stroke"/></g></svg>