<svg width="23" height="23" viewBox="0 0 23 23" fill="none" xmlns="http://www.w3.org/2000/svg">
<path d="M11.5 0.5C17.8515 0.5 23 5.4247 23 11.5C23 17.5753 17.8515 22.5 11.5 22.5C9.4677 22.5031 7.47117 21.9887 5.71551 21.0095L0.00461617 22.5L1.55942 17.0352C0.534873 15.3554 -0.00337913 13.4448 1.59623e-05 11.5C1.59623e-05 5.4247 5.14856 0.5 11.5 0.5ZM7.58081 6.33L7.35081 6.3388C7.20191 6.34747 7.05639 6.38489 6.92301 6.4488C6.79826 6.51637 6.68438 6.60084 6.58491 6.6996C6.44691 6.8239 6.36871 6.9317 6.28476 7.0362C5.8594 7.56519 5.63038 8.21464 5.63386 8.88199C5.63616 9.42099 5.78336 9.94569 6.01336 10.4363C6.48371 11.4285 7.25766 12.479 8.27886 13.4525C8.52496 13.6868 8.76646 13.9222 9.02636 14.1411C10.2953 15.2097 11.8074 15.9803 13.4424 16.3917L14.0956 16.4874C14.3083 16.4984 14.5211 16.483 14.735 16.4731C15.0699 16.4566 15.3969 16.3698 15.6929 16.219C15.8435 16.1448 15.9905 16.064 16.1334 15.977C16.1334 15.977 16.1828 15.9462 16.2771 15.878C16.4324 15.768 16.5278 15.6899 16.6566 15.5612C16.7521 15.4666 16.8349 15.3555 16.8981 15.229C16.9878 15.0497 17.0775 14.7076 17.1143 14.4227C17.1419 14.2049 17.1339 14.0861 17.1304 14.0124C17.1258 13.8947 17.0235 13.7726 16.9119 13.7209L16.2426 13.4338C16.2426 13.4338 15.2421 13.0169 14.6303 12.7507C14.5663 12.724 14.4977 12.7087 14.4279 12.7056C14.3492 12.6979 14.2697 12.7063 14.1947 12.7304C14.1198 12.7545 14.051 12.7937 13.9932 12.8453C13.9875 12.8431 13.9104 12.9058 13.079 13.8694C13.0312 13.9307 12.9655 13.9771 12.8901 14.0026C12.8148 14.028 12.7332 14.0314 12.6558 14.0124C12.5808 13.9932 12.5074 13.9689 12.4361 13.9398C12.2935 13.8826 12.2441 13.8606 12.1463 13.821C11.4863 13.5455 10.8752 13.1733 10.3351 12.7177C10.1902 12.5967 10.0556 12.4647 9.91761 12.3371C9.46518 11.9226 9.07089 11.4538 8.74461 10.9423L8.67676 10.8378C8.62803 10.7676 8.58862 10.6918 8.55946 10.6123C8.51576 10.4506 8.62961 10.3208 8.62961 10.3208C8.62961 10.3208 8.90906 10.0282 9.03901 9.86979C9.16551 9.71579 9.27246 9.56619 9.34146 9.45949C9.47716 9.25049 9.51971 9.03599 9.44841 8.86989C9.12641 8.1175 8.79291 7.3684 8.45021 6.6248C8.38236 6.4774 8.18111 6.3718 7.99826 6.3509C7.93616 6.3443 7.87406 6.3377 7.81196 6.3333C7.65752 6.32596 7.50277 6.32743 7.34851 6.3377L7.57966 6.3289L7.58081 6.33Z" fill="#0FB5E9"/>
</svg>
