<svg width="41" height="40" viewBox="0 0 41 40" fill="none" xmlns="http://www.w3.org/2000/svg">
<path id="Vector" d="M36.0556 0H4.94444C2.5 0 0.5 2 0.5 4.44444V35.5556C0.5 38 2.5 40 4.94444 40H36.0556C38.5 40 40.5 38 40.5 35.5556V4.44444C40.5 2 38.5 0 36.0556 0ZM17.6333 29.5333C17.4277 29.7393 17.1836 29.9028 16.9147 30.0143C16.6459 30.1258 16.3577 30.1832 16.0667 30.1832C15.7756 30.1832 15.4874 30.1258 15.2186 30.0143C14.9498 29.9028 14.7056 29.7393 14.5 29.5333L6.52222 21.5556C6.31648 21.3498 6.15329 21.1056 6.04194 20.8368C5.9306 20.568 5.87329 20.2798 5.87329 19.9889C5.87329 19.6979 5.9306 19.4098 6.04194 19.141C6.15328 18.8722 6.31648 18.628 6.52222 18.4222C6.72796 18.2165 6.97221 18.0533 7.24101 17.9419C7.50982 17.8306 7.79793 17.7733 8.08889 17.7733C8.37985 17.7733 8.66795 17.8306 8.93676 17.9419C9.20557 18.0533 9.44982 18.2165 9.65556 18.4222L16.0556 24.8222L31.3444 9.53333C31.7599 9.11783 32.3235 8.8844 32.9111 8.8844C33.4987 8.8844 34.0623 9.11783 34.4778 9.53333C34.8933 9.94884 35.1267 10.5124 35.1267 11.1C35.1267 11.6876 34.8933 12.2512 34.4778 12.6667L17.6333 29.5333Z" fill="#0FB5E9"/>
</svg>
