<svg width="38" height="37" viewBox="0 0 38 37" fill="none" xmlns="http://www.w3.org/2000/svg">
<path id="Vector" d="M20.85 37C20.6538 37 20.4576 36.9766 20.2614 36.9297C20.0651 36.8828 19.8689 36.8292 19.6727 36.7687L9.45568 32.6063C8.78295 32.3288 8.25038 31.8736 7.85795 31.2409C7.46553 30.6082 7.26932 29.9225 7.26932 29.1838C7.26932 29.0296 7.33939 28.5979 7.47955 27.8888L11.7261 14.8H9.24545L13.7023 7.44625C13.8424 7.26125 13.8918 7.06084 13.8503 6.845C13.8088 6.62917 13.7174 6.44417 13.5761 6.29L12.9875 5.64251L4.45227 13.7825C3.97576 14.2142 3.61865 14.7309 3.38095 15.3328C3.14326 15.9347 3.02385 16.5742 3.02273 17.2513V28.675H0.5V17.2513C0.5 16.1721 0.7035 15.1472 1.1105 14.1766C1.5175 13.2059 2.08483 12.3654 2.8125 11.655L13.1136 1.85L15.1739 4.11625L15.7205 2.45125C15.9727 1.71125 16.3859 1.1174 16.96 0.669705C17.534 0.222005 18.172 -0.00122825 18.8739 5.08242e-06C19.0981 5.08242e-06 19.3016 0.0154219 19.4844 0.0462553C19.6671 0.0770886 19.8701 0.138755 20.0932 0.231255L30.3102 4.39375C30.983 4.67125 31.5155 5.13375 31.9079 5.78125C32.3004 6.42875 32.4966 7.1225 32.4966 7.8625C32.4966 8.0475 32.4265 8.46375 32.2864 9.11125L31.3193 12.0713C32.1322 12.2254 32.8049 12.6417 33.3375 13.32C33.8701 13.9983 34.1364 14.8 34.1364 15.725C34.1364 15.8792 34.1296 16.0333 34.1162 16.1875C34.1027 16.3417 34.0674 16.4958 34.0102 16.65H34.1364C35.0614 16.65 35.8535 17.0126 36.5128 17.7378C37.172 18.463 37.5011 19.3337 37.5 20.35C37.5 21.09 37.3245 21.7529 36.9736 22.3388C36.6227 22.9246 36.1674 23.3717 35.608 23.68C35.664 23.8958 35.7133 24.1043 35.756 24.3053C35.7986 24.5063 35.8193 24.7296 35.8182 24.975C35.8182 25.9925 35.4885 26.8639 34.8293 27.5891C34.17 28.3143 33.3784 28.6762 32.4545 28.675H32.3284C32.3845 28.8292 32.4198 28.9833 32.4344 29.1375C32.4489 29.2917 32.4557 29.4458 32.4545 29.6C32.4545 30.6175 32.1249 31.4888 31.4656 32.2141C30.8064 32.9393 30.0148 33.3012 29.0909 33.3H24.4239L24.0455 34.5487C23.8212 35.3196 23.408 35.9208 22.806 36.3525C22.2039 36.7842 21.5519 37 20.85 37ZM21.9432 29.9237L27.9977 11.285L17.7807 7.1225L11.7261 25.7613L21.9432 29.9237ZM25.3068 30.525H29.0909C29.3151 30.525 29.5114 30.4325 29.6795 30.2475C29.8477 30.0625 29.9318 29.8467 29.9318 29.6C29.9318 29.3533 29.8477 29.1375 29.6795 28.9525C29.5114 28.7675 29.3151 28.675 29.0909 28.675H25.9375L25.3068 30.525ZM26.8205 25.9H32.4545C32.6788 25.9 32.875 25.8075 33.0432 25.6225C33.2114 25.4375 33.2955 25.2217 33.2955 24.975C33.2955 24.7283 33.2114 24.5125 33.0432 24.3275C32.875 24.1425 32.6788 24.05 32.4545 24.05H27.4511L26.8205 25.9ZM28.3341 21.275H34.1364C34.3606 21.275 34.5568 21.1825 34.725 20.9975C34.8932 20.8125 34.9773 20.5967 34.9773 20.35C34.9773 20.1033 34.8932 19.8875 34.725 19.7025C34.5568 19.5175 34.3606 19.425 34.1364 19.425H28.9227L28.3341 21.275ZM29.8477 16.65H30.7727C30.997 16.65 31.1932 16.5575 31.3614 16.3725C31.5295 16.1875 31.6136 15.9717 31.6136 15.725C31.6136 15.4783 31.5295 15.2625 31.3614 15.0775C31.1932 14.8925 30.997 14.8 30.7727 14.8H30.4364L29.8477 16.65Z" fill="#0FB5E9"/>
</svg>
