<svg width="37" height="37" viewBox="0 0 37 37" fill="none" xmlns="http://www.w3.org/2000/svg">
<path d="M11.1 0H25.9C28.8439 0 31.6672 1.16946 33.7489 3.25111C35.8305 5.33277 37 8.1561 37 11.1V25.9C37 28.8439 35.8305 31.6672 33.7489 33.7489C31.6672 35.8305 28.8439 37 25.9 37H11.1C8.1561 37 5.33277 35.8305 3.25111 33.7489C1.16946 31.6672 0 28.8439 0 25.9L0 11.1C0 8.1561 1.16946 5.33277 3.25111 3.25111C5.33277 1.16946 8.1561 0 11.1 0ZM22.2 16.65C21.7094 16.65 21.2388 16.8449 20.8919 17.1919C20.5449 17.5388 20.35 18.0093 20.35 18.5C20.35 18.9907 20.5449 19.4612 20.8919 19.8081C21.2388 20.1551 21.7094 20.35 22.2 20.35H27.75C28.2407 20.35 28.7112 20.1551 29.0581 19.8081C29.4051 19.4612 29.6 18.9907 29.6 18.5C29.6 18.0093 29.4051 17.5388 29.0581 17.1919C28.7112 16.8449 28.2407 16.65 27.75 16.65H22.2ZM18.5 24.05C18.0093 24.05 17.5388 24.2449 17.1919 24.5919C16.8449 24.9388 16.65 25.4093 16.65 25.9C16.65 26.3907 16.8449 26.8612 17.1919 27.2081C17.5388 27.5551 18.0093 27.75 18.5 27.75H27.75C28.2407 27.75 28.7112 27.5551 29.0581 27.2081C29.4051 26.8612 29.6 26.3907 29.6 25.9C29.6 25.4093 29.4051 24.9388 29.0581 24.5919C28.7112 24.2449 28.2407 24.05 27.75 24.05H18.5ZM18.5 9.25C18.0093 9.25 17.5388 9.44491 17.1919 9.79185C16.8449 10.1388 16.65 10.6093 16.65 11.1C16.65 11.5907 16.8449 12.0612 17.1919 12.4081C17.5388 12.7551 18.0093 12.95 18.5 12.95H27.75C28.2407 12.95 28.7112 12.7551 29.0581 12.4081C29.4051 12.0612 29.6 11.5907 29.6 11.1C29.6 10.6093 29.4051 10.1388 29.0581 9.79185C28.7112 9.44491 28.2407 9.25 27.75 9.25H18.5ZM10.7818 18.9496L9.47385 17.6416C9.30319 17.4649 9.09906 17.324 8.87335 17.227C8.64764 17.1301 8.40488 17.079 8.15924 17.0769C7.9136 17.0748 7.66999 17.1216 7.44264 17.2146C7.21528 17.3076 7.00872 17.445 6.83502 17.6187C6.66132 17.7924 6.52395 17.9989 6.43093 18.2263C6.33791 18.4536 6.2911 18.6973 6.29324 18.9429C6.29537 19.1885 6.34641 19.4313 6.44336 19.657C6.54032 19.8827 6.68126 20.0868 6.85795 20.2575L9.47385 22.8734C9.64567 23.0454 9.8497 23.1819 10.0743 23.275C10.2989 23.3681 10.5396 23.416 10.7827 23.416C11.0258 23.416 11.2666 23.3681 11.4912 23.275C11.7158 23.1819 11.9198 23.0454 12.0916 22.8734L17.3234 17.6416C17.6708 17.2947 17.8661 16.824 17.8665 16.3331C17.8668 15.8422 17.6721 15.3712 17.3253 15.0239C16.9784 14.6765 16.5077 14.4811 16.0168 14.4808C15.5258 14.4804 15.0549 14.6751 14.7075 15.022L10.7818 18.9477V18.9496Z" fill="white"/>
</svg>
