<svg width="18" height="23" viewBox="0 0 18 23" fill="none" xmlns="http://www.w3.org/2000/svg">
<path fill-rule="evenodd" clip-rule="evenodd" d="M1.4462 2.99182C1.59852 2.30246 2.01844 1.70184 2.6136 1.32209C3.20875 0.942341 3.93039 0.814571 4.61975 0.966887L5.80847 1.22954C6.55359 1.39417 7.09122 2.04547 7.11264 2.80807L7.22331 6.85176C7.23236 7.17907 7.14462 7.50178 6.97108 7.77946C6.79755 8.05713 6.54593 8.27743 6.24776 8.41274L4.94179 9.00564C4.80549 9.0673 4.75203 9.18998 4.76524 9.28649C4.9604 10.7244 5.46573 12.1026 6.24624 13.3259C7.02675 14.5491 8.06379 15.5881 9.28557 16.3709C9.36753 16.4236 9.50045 16.4266 9.61467 16.3291L10.7026 15.3946C10.951 15.1812 11.2568 15.0458 11.5817 15.0054C11.9066 14.965 12.2363 15.0214 12.5293 15.1675L16.1499 16.9716C16.8325 17.3124 17.1967 18.0744 17.0318 18.8203L16.7694 20.0082C16.617 20.6976 16.1971 21.2982 15.602 21.6779C15.0068 22.0577 14.2852 22.1855 13.5958 22.0331L11.6464 21.6024C4.1103 19.9373 -0.649645 12.4773 1.01547 4.94126L1.4462 2.99182Z" fill="white"/>
</svg>
