<svg width="5" height="4" viewBox="0 0 5 4" fill="none" xmlns="http://www.w3.org/2000/svg">
<path d="M0.0718946 0.243821C0.119996 0.169003 0.189442 0.106993 0.273111 0.064151C0.356781 0.0213091 0.451664 -0.000823498 0.548029 2.3365e-05L4.4522 2.3365e-05C4.54856 -0.000823498 4.64344 0.0213091 4.72711 0.064151C4.81078 0.106993 4.88023 0.169003 4.92833 0.243821C4.97527 0.315797 5 0.397659 5 0.481019C5 0.564379 4.97527 0.646241 4.92833 0.718217L2.97669 3.75559C2.92791 3.83 2.85827 3.8917 2.77468 3.93458C2.69108 3.97745 2.59643 4 2.50011 4C2.40379 4 2.30914 3.97745 2.22555 3.93458C2.14195 3.8917 2.07231 3.83 2.02353 3.75559L0.0714478 0.718217C0.02458 0.646206 -7.82013e-05 0.564325 4.76837e-07 0.480965C7.86781e-05 0.397604 0.0248909 0.315762 0.0718946 0.243821Z" fill="#54585A"/>
</svg>
