<svg width="41" height="42" viewBox="0 0 41 42" fill="none" xmlns="http://www.w3.org/2000/svg">
<circle cx="20.125" cy="21" r="20.125" fill="#808588"/>
<circle cx="20.125" cy="21" r="20.125" fill="#F2F2F2"/>
<circle cx="20.125" cy="21" r="20.125" fill="#F2F2F2"/>
<circle cx="20.125" cy="21" r="20.125" fill="#F2F2F2"/>
<path d="M30.1875 17.6269V26.5557C30.1875 27.2776 29.8933 27.9721 29.3651 28.4974C28.8369 29.0226 28.1145 29.3387 27.3459 29.381L27.1688 29.3857H13.0812C12.3113 29.3858 11.5704 29.11 11.0101 28.6148C10.4499 28.1195 10.1127 27.4423 10.0675 26.7217L10.0625 26.5557V17.6269L19.5665 23.5672L19.6833 23.6294C19.8208 23.6924 19.9719 23.7252 20.125 23.7252C20.2781 23.7252 20.4292 23.6924 20.5667 23.6294L20.6835 23.5672L30.1875 17.6269Z" fill="#1538B6"/>
<path d="M27.1691 14.292C28.2558 14.292 29.2087 14.8297 29.74 15.6382L20.1253 21.6473L10.5106 15.6382C10.7629 15.254 11.1095 14.932 11.5216 14.6989C11.9336 14.4659 12.3992 14.3286 12.8793 14.2986L13.0816 14.292H27.1691Z" fill="#1538B6"/>
</svg>
