<svg width="10" height="12" viewBox="0 0 10 12" fill="none" xmlns="http://www.w3.org/2000/svg">
<path fill-rule="evenodd" clip-rule="evenodd" d="M0.849991 1.43399C0.931734 1.06403 1.15709 0.741699 1.47649 0.537901C1.7959 0.334102 2.18317 0.265532 2.55313 0.347275L3.19108 0.48823C3.59096 0.576585 3.87948 0.926113 3.89098 1.33538L3.95037 3.50549C3.95523 3.68115 3.90814 3.85433 3.81501 4.00335C3.72188 4.15237 3.58685 4.2706 3.42683 4.34322L2.72596 4.6614C2.65281 4.6945 2.62412 4.76033 2.63121 4.81213C2.73594 5.58378 3.00714 6.32345 3.42601 6.97992C3.84488 7.6364 4.40143 8.19399 5.05712 8.6141C5.10111 8.64235 5.17244 8.64397 5.23373 8.59168L5.8176 8.09012C5.95088 7.9756 6.11499 7.90295 6.28938 7.88127C6.46376 7.8596 6.64067 7.88986 6.79793 7.96828L8.74099 8.93649C9.10731 9.11935 9.30273 9.52828 9.21427 9.92863L9.07342 10.5661C8.99168 10.9361 8.76632 11.2584 8.44692 11.4622C8.12752 11.666 7.74024 11.7346 7.37028 11.6528L6.32408 11.4217C2.27973 10.5281 -0.274778 6.52454 0.618832 2.48018L0.849991 1.43399Z" fill="white"/>
</svg>
