<svg width="13" height="10" viewBox="0 0 13 10" fill="none" xmlns="http://www.w3.org/2000/svg">
<path d="M7.78154 9.85229L13 5.02464L7.78154 0.196984C7.73441 0.140025 7.67453 0.09305 7.60596 0.0592396C7.53739 0.0254293 7.46172 0.00557276 7.38409 0.00101415C7.30646 -0.00354446 7.22866 0.00730154 7.15598 0.0328176C7.0833 0.0583336 7.01742 0.0979239 6.96281 0.148909C6.90819 0.199893 6.86612 0.261082 6.83944 0.328332C6.81275 0.395582 6.80208 0.467323 6.80814 0.5387C6.8142 0.610076 6.83686 0.67942 6.87457 0.742038C6.91228 0.804655 6.96418 0.859085 7.02673 0.901641L10.9311 4.52488L0.543024 4.52488C0.399005 4.52488 0.260885 4.57753 0.159048 4.67126C0.0572109 4.76498 -9.53674e-07 4.89209 -9.53674e-07 5.02464C-9.53674e-07 5.15718 0.0572109 5.2843 0.159048 5.37802C0.260885 5.47174 0.399005 5.52439 0.543024 5.52439L10.9311 5.52439L7.02673 9.14763C6.9252 9.24174 6.86845 9.36911 6.86895 9.50173C6.86946 9.63435 6.92719 9.76135 7.02945 9.85479C7.1317 9.94823 7.2701 10.0005 7.4142 10C7.5583 9.99953 7.69629 9.9464 7.79783 9.85229H7.78154Z" fill="#0FB5E9"/>
</svg>
