<svg width="14" height="10" viewBox="0 0 14 10" fill="none" xmlns="http://www.w3.org/2000/svg">
<path id="Vector" d="M8.28154 9.85229L13.5 5.02464L8.28154 0.196984C8.23441 0.140025 8.17453 0.09305 8.10596 0.0592396C8.03739 0.0254293 7.96172 0.00557276 7.88409 0.00101415C7.80646 -0.00354446 7.72866 0.00730154 7.65598 0.0328176C7.5833 0.0583336 7.51742 0.0979239 7.46281 0.148909C7.40819 0.199893 7.36612 0.261082 7.33944 0.328332C7.31275 0.395582 7.30208 0.467323 7.30814 0.5387C7.3142 0.610076 7.33686 0.67942 7.37457 0.742038C7.41228 0.804655 7.46418 0.859085 7.52673 0.901641L11.4311 4.52488L1.04302 4.52488C0.899005 4.52488 0.760885 4.57753 0.659048 4.67126C0.557211 4.76498 0.499999 4.89209 0.499999 5.02464C0.499999 5.15718 0.557211 5.2843 0.659048 5.37802C0.760885 5.47174 0.899005 5.52439 1.04302 5.52439L11.4311 5.52439L7.52673 9.14763C7.4252 9.24174 7.36845 9.36911 7.36895 9.50173C7.36946 9.63435 7.42719 9.76135 7.52945 9.85479C7.6317 9.94823 7.7701 10.0005 7.9142 10C8.0583 9.99953 8.19629 9.9464 8.29783 9.85229H8.28154Z" fill="#0FE9E9"/>
</svg>
