<svg width="37" height="37" viewBox="0 0 37 37" fill="none" xmlns="http://www.w3.org/2000/svg">
<path d="M18.3582 1.06899C18.6127 0.77505 18.9279 0.530621 19.2855 0.349853C19.6432 0.169086 20.0361 0.0555698 20.4416 0.0158762C20.847 -0.0238173 21.257 0.0110999 21.6478 0.118607C22.0385 0.226114 22.4023 0.404075 22.718 0.64219L32.7758 8.22219C33.329 8.63895 33.7082 9.21995 33.8488 9.86601C33.9893 10.5121 33.8826 11.1831 33.5467 11.7646C32.6673 11.5166 31.7528 11.391 30.8333 11.3919H29.9083L30.8272 10.4245L25.53 6.43247L21.1609 11.3947H17.1865L23.1404 4.63421L20.7662 2.84449L13.3724 11.3919H9.42575L18.3582 1.06899ZM26.2083 25.6186C25.7995 25.6186 25.4073 25.7685 25.1182 26.0353C24.8291 26.3021 24.6667 26.664 24.6667 27.0413C24.6667 27.4186 24.8291 27.7805 25.1182 28.0473C25.4073 28.3141 25.7995 28.464 26.2083 28.464H29.2917C29.7005 28.464 30.0927 28.3141 30.3818 28.0473C30.6709 27.7805 30.8333 27.4186 30.8333 27.0413C30.8333 26.664 30.6709 26.3021 30.3818 26.0353C30.0927 25.7685 29.7005 25.6186 29.2917 25.6186H26.2083ZM3.08333 12.8146C3.08333 12.4373 3.24576 12.0754 3.53488 11.8086C3.824 11.5418 4.21612 11.3919 4.625 11.3919H6.3455L8.79675 8.54656H4.625C3.39837 8.54656 2.22199 8.99622 1.35463 9.79663C0.487276 10.597 0 11.6826 0 12.8146V29.8866C0 31.7732 0.812126 33.5825 2.25772 34.9165C3.70331 36.2506 5.66396 37 7.70833 37H30.8333C32.4688 37 34.0373 36.4004 35.1938 35.3332C36.3503 34.266 37 32.8186 37 31.3093V19.9279C37 18.4187 36.3503 16.9712 35.1938 15.904C34.0373 14.8368 32.4688 14.2372 30.8333 14.2372H4.625C4.21612 14.2372 3.824 14.0874 3.53488 13.8206C3.24576 13.5538 3.08333 13.1919 3.08333 12.8146ZM3.08333 29.8866V16.8407C3.56433 16.9972 4.08542 17.0826 4.625 17.0826H30.8333C31.6511 17.0826 32.4353 17.3824 33.0136 17.916C33.5918 18.4496 33.9167 19.1733 33.9167 19.9279V31.3093C33.9167 32.0639 33.5918 32.7877 33.0136 33.3213C32.4353 33.8549 31.6511 34.1547 30.8333 34.1547H7.70833C6.48171 34.1547 5.30532 33.705 4.43796 32.9046C3.57061 32.1042 3.08333 31.0186 3.08333 29.8866Z" fill="#0FB5E9"/>
</svg>
