<svg width="32" height="37" viewBox="0 0 32 37" fill="none" xmlns="http://www.w3.org/2000/svg">
<path id="Vector" d="M7.09141 17.619H21.2742V21.1429H7.09141V17.619ZM10.6371 31.7143H3.54571V3.52381H15.9557V12.3333H24.8199V17.7952L28.3657 14.2714V10.5714L17.7285 0H3.54571C2.60533 0 1.70346 0.371257 1.03851 1.0321C0.373564 1.69294 0 2.58924 0 3.52381V31.7143C0 32.6489 0.373564 33.5452 1.03851 34.206C1.70346 34.8668 2.60533 35.2381 3.54571 35.2381H10.6371V31.7143ZM7.09141 28.1905H14.3601L15.9557 26.6048V24.6667H7.09141V28.1905ZM28.7202 19.381C28.8975 19.381 29.2521 19.5571 29.4294 19.7333L31.7341 22.0238C32.0886 22.3762 32.0886 23.081 31.7341 23.4333L29.9612 25.1952L26.2382 21.4952L28.0111 19.7333C28.1884 19.5571 28.3657 19.381 28.7202 19.381ZM28.7202 26.2524L17.9058 37H14.1828V33.3L24.9972 22.5524L28.7202 26.2524Z" fill="#F2F2F2"/>
</svg>
