<svg width="36" height="37" viewBox="0 0 36 37" fill="none" xmlns="http://www.w3.org/2000/svg">
<path id="Vector" fill-rule="evenodd" clip-rule="evenodd" d="M3.85714 3.46875V33.5313H18.6429C19.1543 33.5313 19.6449 33.714 20.0066 34.0392C20.3682 34.3645 20.5714 34.8056 20.5714 35.2656C20.5714 35.7256 20.3682 36.1668 20.0066 36.492C19.6449 36.8173 19.1543 37 18.6429 37H2.57143C1.88944 37 1.23539 36.7564 0.753154 36.3227C0.270917 35.889 0 35.3008 0 34.6875V2.3125C0 1.69919 0.270917 1.11099 0.753154 0.677317C1.23539 0.243639 1.88944 1.13288e-06 2.57143 1.13288e-06H19.656C20.0015 -0.000306371 20.3435 0.0619902 20.6615 0.183172C20.9796 0.304353 21.2673 0.481934 21.5074 0.705314L30.1346 8.74356C30.5981 9.17476 30.8571 9.75103 30.8571 10.3508V14.4531C30.8571 14.9131 30.654 15.3543 30.2923 15.6795C29.9306 16.0048 29.4401 16.1875 28.9286 16.1875C28.4171 16.1875 27.9265 16.0048 27.5649 15.6795C27.2032 15.3543 27 14.9131 27 14.4531V13.875H19.9286C18.7351 13.875 17.5905 13.4486 16.7466 12.6897C15.9027 11.9308 15.4286 10.9014 15.4286 9.82813V3.46875H3.85714ZM19.2857 3.63063L26.5577 10.4063H19.9286C19.7581 10.4063 19.5946 10.3453 19.474 10.2369C19.3534 10.1285 19.2857 9.98145 19.2857 9.82813V3.63063ZM28.2857 34.6875C27.7742 34.6875 27.2837 34.5048 26.922 34.1795C26.5603 33.8543 26.3571 33.4131 26.3571 32.9531V29.4844H22.5C21.9885 29.4844 21.498 29.3016 21.1363 28.9764C20.7746 28.6511 20.5714 28.21 20.5714 27.75C20.5714 27.29 20.7746 26.8489 21.1363 26.5236C21.498 26.1984 21.9885 26.0156 22.5 26.0156H26.3571V22.5469C26.3571 22.0869 26.5603 21.6457 26.922 21.3205C27.2837 20.9952 27.7742 20.8125 28.2857 20.8125C28.7972 20.8125 29.2877 20.9952 29.6494 21.3205C30.0111 21.6457 30.2143 22.0869 30.2143 22.5469V26.0156H34.0714C34.5829 26.0156 35.0735 26.1984 35.4351 26.5236C35.7968 26.8489 36 27.29 36 27.75C36 28.21 35.7968 28.6511 35.4351 28.9764C35.0735 29.3016 34.5829 29.4844 34.0714 29.4844H30.2143V32.9531C30.2143 33.4131 30.0111 33.8543 29.6494 34.1795C29.2877 34.5048 28.7972 34.6875 28.2857 34.6875Z" fill="#0FB5E9"/>
</svg>
