<svg width="37" height="37" viewBox="0 0 37 37" fill="none" xmlns="http://www.w3.org/2000/svg">
<g id="Vector">
<path d="M26.1476 12.7878L19.0322 25.5955C18.1115 27.2533 15.6225 25.8715 16.5447 24.2122L23.6601 11.4045C24.5808 9.74665 27.0698 11.1285 26.1476 12.7878Z" fill="#F2F2F2"/>
<path d="M11.5625 18.1015L18.6779 23.7938C20.1579 24.9778 18.3805 27.2007 16.899 26.0138L9.78365 20.3215C8.30365 19.1375 10.0811 16.9147 11.5625 18.1015Z" fill="#F2F2F2"/>
<path fill-rule="evenodd" clip-rule="evenodd" d="M18.5 34.1538C27.1452 34.1538 34.1538 27.1452 34.1538 18.5C34.1538 9.85481 27.1452 2.84615 18.5 2.84615C9.85481 2.84615 2.84615 9.85481 2.84615 18.5C2.84615 27.1452 9.85481 34.1538 18.5 34.1538ZM18.5 37C28.7177 37 37 28.7177 37 18.5C37 8.28231 28.7177 0 18.5 0C8.28231 0 0 8.28231 0 18.5C0 28.7177 8.28231 37 18.5 37Z" fill="#F2F2F2"/>
</g>
</svg>
