<svg width="37" height="37" viewBox="0 0 37 37" fill="none" xmlns="http://www.w3.org/2000/svg">
<path d="M0 5.28571H2.64286V31.7143H0V5.28571ZM5.28571 2.64286H7.92857V34.3571H5.28571V2.64286ZM15.8571 26.4286H31.7143V29.0714H15.8571V26.4286ZM15.8571 18.5H31.7143V21.1429H15.8571V18.5Z" fill="#F2F2F2"/>
<path d="M36.6036 9.64643L27.3536 0.396428C27.0893 0.132143 26.825 0 26.4286 0H13.2143C11.7607 0 10.5714 1.18929 10.5714 2.64286V34.3571C10.5714 35.8107 11.7607 37 13.2143 37H34.3571C35.8107 37 37 35.8107 37 34.3571V10.5714C37 10.175 36.8679 9.91071 36.6036 9.64643ZM26.4286 3.17143L33.8286 10.5714H26.4286V3.17143ZM34.3571 34.3571H13.2143V2.64286H23.7857V10.5714C23.7857 12.025 24.975 13.2143 26.4286 13.2143H34.3571V34.3571Z" fill="#F2F2F2"/>
</svg>
