<svg width="23" height="23" viewBox="0 0 23 23" fill="none" xmlns="http://www.w3.org/2000/svg">
<path d="M11.5 0.5C5.152 0.5 0 5.428 0 11.5C0 17.572 5.152 22.5 11.5 22.5C17.848 22.5 23 17.572 23 11.5C23 5.428 17.848 0.5 11.5 0.5ZM16.836 7.98C16.6635 9.718 15.916 13.942 15.5365 15.889C15.3755 16.714 15.0535 16.989 14.7545 17.022C14.0875 17.077 13.5815 16.604 12.9375 16.197C11.9255 15.559 11.3505 15.163 10.373 14.547C9.2345 13.832 9.9705 13.436 10.626 12.798C10.7985 12.633 13.7425 10.07 13.8 9.839C13.808 9.80401 13.8069 9.76769 13.7969 9.73318C13.7869 9.69868 13.7682 9.66704 13.7425 9.641C13.6735 9.586 13.5815 9.608 13.501 9.619C13.3975 9.641 11.7875 10.664 8.648 12.688C8.188 12.985 7.774 13.139 7.406 13.128C6.992 13.117 6.21 12.908 5.6235 12.721C4.899 12.501 4.3355 12.38 4.3815 11.995C4.4045 11.797 4.692 11.599 5.2325 11.39C8.5905 9.993 10.8215 9.069 11.937 8.629C15.134 7.353 15.7895 7.133 16.2265 7.133C16.3185 7.133 16.537 7.155 16.675 7.265C16.79 7.353 16.8245 7.474 16.836 7.562C16.8245 7.628 16.8475 7.826 16.836 7.98Z" fill="#0FB5E9"/>
</svg>
