<svg width="38" height="35" viewBox="0 0 38 35" fill="none" xmlns="http://www.w3.org/2000/svg">
<path id="Vector" d="M13.9507 5.86842C15.7344 5.86842 17.445 6.62255 18.7063 7.96492C19.9675 9.30729 20.6761 11.1279 20.6761 13.0263C20.6761 14.9247 19.9675 16.7453 18.7063 18.0877C17.445 19.4301 15.7344 20.1842 13.9507 20.1842C12.167 20.1842 10.4564 19.4301 9.19517 18.0877C7.93392 16.7453 7.22536 14.9247 7.22536 13.0263C7.22536 11.1279 7.93392 9.30729 9.19517 7.96492C10.4564 6.62255 12.167 5.86842 13.9507 5.86842ZM13.9507 23.7632C18.4399 23.7632 27.4014 26.1611 27.4014 30.9211V34.5H0.5V30.9211C0.5 26.1611 9.46154 23.7632 13.9507 23.7632ZM26.9979 6.51263C30.3942 10.4495 30.3942 15.9074 26.9979 19.5221L24.1733 16.4979C25.5856 14.3863 25.5856 11.6484 24.1733 9.53684L26.9979 6.51263ZM32.5631 0.5C39.1708 7.74737 39.1204 18.5916 32.5631 25.5526L29.8226 22.6358C34.4799 16.9453 34.4799 8.82105 29.8226 3.41684L32.5631 0.5Z" fill="#F2F2F2"/>
</svg>
